<mxfile host="app.diagrams.net" modified="2023-08-31T22:51:24.833Z" agent="Mozilla/5.0 (Windows NT 6.1; rv:89.0) Gecko/20100101 Firefox/89.0" version="21.7.1" etag="c5MJxaKijeaPtC-IC3We" type="github">
  <diagram name="PÃ¡gina-1" id="DS0k3RGpCKUHc2seuDxq">
    <mxGraphModel>
      <root>
        <mxCell id="0" />
        <mxCell id="1" parent="0" />
      </root>
    </mxGraphModel>
  </diagram>
</mxfile>
